PathFileType	4	(x/y/z)	S08_PSF_T14
DataRate	CameraRate	NumFrames	NumMarkers	Units	OrigDataRate	OrigDataStartFrame	OrigNumFrames
240	240	6	51	mm	240	261	417
Frame#	Time	Sternum			R.Acromium			L.Acromium			Top.Head			R.ASIS			L.ASIS			R.PSIS			L.PSIS			R.Great.Tro			L.Great.Tro			R.Iliac.Crest			L.Iliac.Crest			V.Sacral			R.Thigh.Upper.Post			R.Thigh.Lower.Ant			R.Thigh.Lower.Post			R.Thigh.Upper.Ant			R.Knee.Lat			R.Knee.Med			R.Shank.Upper.Post			R.Shank.Lower.Ant			R.Shank.Lower.Post			R.Shank.Upper.Ant			R.Ankle.Lat			R.Ankle.Med			R.Heel.Upper			R.Heel.Med			R.Heel.Lat			R.Toe.Lat			R.Toe.Med			R.Toe.Tip			L.Thigh.Upper.Post			L.Thigh.Lower.Ant			L.Thigh.Lower.Post			L.Thigh.Upper.Ant			L.Knee.Lat			L.Knee.Med			L.Shank.Upper.Post			L.Shank.Lower.Ant			L.Shank.Lower.Post			L.Shank.Upper.Ant			L.Ankle.Lat			L.Ankle.Med			L.Heel.Upper			L.Heel.Med			L.Heel.Lat			L.Toe.Lat			L.Toe.Med			L.Toe.Tip			Cervical.Spine			Back			
		X1	Y1	Z1	X2	Y2	Z2	X3	Y3	Z3	X4	Y4	Z4	X5	Y5	Z5	X6	Y6	Z6	X7	Y7	Z7	X8	Y8	Z8	X9	Y9	Z9	X10	Y10	Z10	X11	Y11	Z11	X12	Y12	Z12	X13	Y13	Z13	X14	Y14	Z14	X15	Y15	Z15	X16	Y16	Z16	X17	Y17	Z17	X18	Y18	Z18	X19	Y19	Z19	X20	Y20	Z20	X21	Y21	Z21	X22	Y22	Z22	X23	Y23	Z23	X24	Y24	Z24	X25	Y25	Z25	X26	Y26	Z26	X27	Y27	Z27	X28	Y28	Z28	X29	Y29	Z29	X30	Y30	Z30	X31	Y31	Z31	X32	Y32	Z32	X33	Y33	Z33	X34	Y34	Z34	X35	Y35	Z35	X36	Y36	Z36	X37	Y37	Z37	X38	Y38	Z38	X39	Y39	Z39	X40	Y40	Z40	X41	Y41	Z41	X42	Y42	Z42	X43	Y43	Z43	X44	Y44	Z44	X45	Y45	Z45	X46	Y46	Z46	X47	Y47	Z47	X48	Y48	Z48	X49	Y49	Z49	X50	Y50	Z50	X51	Y51	Z51	

261	1.0833	-58.086	1198.7	326.96	-160.87	1440.4	503.94	-188	1464.7	168.19	-171.88	1755	348.81	-89.806	985.81	443.31	-80.632	989.5	210.72	-286.64	1013.8	355.18	-280.15	1015.8	261.88	-180	885.66	507.69	-160.91	880.65	139.22	-184.43	1058.5	481.29	-170.33	1070.6	173.69	-300.65	974.79	307.88	-254.27	702.28	487.25	-204.34	586.65	454.98	-270.12	614.3	464.8	-180.1	676.6	478.83	-270.19	500.92	443.14	-282.65	512.61	315.32	-412.38	362.81	440.63	-383.66	279.89	418.78	-446.2	294.35	429.46	-349.02	348.6	431.96	-518.44	139.94	384.42	-481.56	146.72	309.67	-578.41	117.68	332.95	-569.53	88.799	306.24	-578.8	91.363	367.37	NaN	NaN	NaN	-391.63	43.991	302.61	-328.36	44.131	352.46	-109.27	674.78	155.33	2.5283	619.85	177.79	-63.131	597.98	174.36	-39.334	695.09	152.48	-8.0504	510.79	193	-4.6107	511.96	318.83	1.4264	321.46	194.84	96.805	265.64	213.34	25.587	253.04	210.48	65.727	333.96	198.69	115.57	100.51	223.72	138.19	118.34	309.2	74.987	64.46	276.36	100.76	37.397	308.89	90.896	39.281	245.64	258.97	80.138	207.56	277.75	97.459	319	329.29	133.94	268.29	-240.35	1497.8	334.63	-293.31	1215.1	346.06
262	1.0875	-52.029	1198.5	326.55	-155.22	1440.2	503.47	-182.25	1464.4	167.63	-166.43	1754.8	348.36	-83.536	985.5	442.96	-74.5	989.37	210.38	-280.45	1013.6	355.02	-274.03	1015.7	261.7	-173.81	885.17	507.32	-154.8	880.64	138.92	-178.22	1058.2	481.1	-164.3	1070.5	173.47	-294.52	974.66	307.66	-247.86	701.68	486.79	-197.66	586.08	454.82	-263.51	613.64	464.4	-173.63	676.11	478.55	-263.51	500.4	443.08	-275.7	511.89	315.31	-407.17	363.88	440.63	-379.54	280.57	418.91	-441.83	295.86	429.56	-344.04	348.91	432.07	-516.07	142.31	384.84	-478.83	148.52	310.13	-576.17	121.15	333.27	-567.81	92.339	306.46	-577.08	94.788	367.58	NaN	NaN	NaN	-391.22	44.115	302.69	-328.14	43.854	352.44	-102.94	674.98	155.45	8.8959	620.17	178.03	-56.733	598.24	174.53	-33.029	695.37	152.68	-1.8187	510.93	193.23	1.5436	512.18	318.96	6.0513	321.54	194.95	100.81	264.8	213.71	29.512	252.88	210.56	70.442	333.42	199.04	117.59	99.752	223.88	140.46	117.18	309.46	76.528	65.01	276.66	101.72	37.322	309.06	91.83	39.578	245.83	260.5	77.265	207.85	279.57	94.068	319.25	331.74	129.78	268.63	-234.67	1497.6	334.08	-287.34	1214.8	345.69
263	1.0917	-45.96	1198.5	326.13	-149.56	1440	502.99	-176.51	1464.1	167.07	-160.97	1754.7	347.9	-77.225	985.25	442.58	-68.363	989.32	210.02	-274.23	1013.5	354.88	-267.9	1015.6	261.54	-167.54	884.71	506.93	-148.67	880.72	138.61	-171.98	1057.9	480.92	-158.29	1070.5	173.26	-288.38	974.6	307.47	-241.33	701.08	486.32	-190.8	585.53	454.68	-256.72	612.96	464.01	-167.03	675.65	478.27	-256.61	499.88	443.04	-268.54	511.15	315.32	-401.73	365	440.65	-375.21	281.3	419.08	-437.25	297.42	429.69	-338.85	349.24	432.21	-513.5	144.79	385.3	-475.93	150.4	310.64	-573.64	124.81	333.65	-565.89	96.088	306.71	-575.17	98.418	367.82	NaN	NaN	NaN	-390.78	44.273	302.77	-327.92	43.591	352.42	-96.614	675.26	155.54	15.243	620.56	178.25	-50.359	598.57	174.67	-26.721	695.72	152.89	4.3918	511.13	193.41	7.612	512.43	319.06	10.642	321.7	195	104.76	264.02	214.05	33.383	252.81	210.59	75.12	332.94	199.35	119.47	99.052	224	142.59	116.07	309.69	77.93	65.598	276.92	102.51	37.295	309.19	92.612	39.912	245.98	261.88	74.388	208.11	281.23	90.669	319.48	334.05	125.58	268.95	-229	1497.4	333.53	-281.36	1214.5	345.31
264	1.0958	-39.883	1198.5	325.7	-143.92	1439.9	502.51	-170.77	1463.9	166.5	-155.51	1754.7	347.45	-70.88	985.06	442.19	-62.222	989.35	209.65	-268	1013.4	354.77	-261.76	1015.7	261.41	-161.21	884.28	506.54	-142.54	880.89	138.29	-165.7	1057.7	480.75	-152.3	1070.5	173.06	-282.23	974.61	307.29	-234.66	700.46	485.86	-183.76	584.98	454.56	-249.76	612.27	463.63	-160.27	675.22	477.99	-249.48	499.35	443.04	-261.15	510.39	315.37	-396.05	366.16	440.7	-370.66	282.07	419.29	-432.44	299.04	429.84	-333.44	349.59	432.39	-510.71	147.38	385.81	-472.84	152.36	311.18	-570.83	128.64	334.07	-563.76	100.05	306.98	-573.05	102.26	368.09	NaN	NaN	NaN	-390.29	44.47	302.86	-327.7	43.339	352.4	-90.299	675.61	155.59	21.559	620.98	178.45	-44.018	598.96	174.75	-20.42	696.14	153.09	10.57	511.39	193.56	13.58	512.72	319.12	15.2	321.94	194.99	108.65	263.31	214.35	37.204	252.81	210.55	79.76	332.53	199.62	121.23	98.413	224.08	144.59	115	309.86	79.215	66.213	277.14	103.17	37.314	309.28	93.273	40.276	246.09	263.13	71.536	208.34	282.72	87.3	319.7	336.22	121.38	269.24	-223.34	1497.3	332.97	-275.37	1214.2	344.95
265	1.1	-33.802	1198.5	325.26	-138.28	1439.9	502.02	-165.04	1463.7	165.93	-150.04	1754.7	346.99	-64.507	984.94	441.77	-56.082	989.47	209.27	-261.74	1013.4	354.68	-255.61	1015.8	261.31	-154.82	883.87	506.14	-136.41	881.16	137.95	-159.38	1057.5	480.59	-146.35	1070.6	172.87	-276.05	974.71	307.14	-227.85	699.83	485.39	-176.52	584.46	454.46	-242.63	611.56	463.27	-153.37	674.81	477.72	-242.12	498.81	443.07	-253.53	509.6	315.44	-390.14	367.34	440.78	-365.88	282.89	419.54	-427.4	300.71	430.03	-327.8	349.97	432.61	-507.7	150.07	386.36	-469.54	154.39	311.77	-567.7	132.65	334.54	-561.4	104.23	307.28	-570.69	106.32	368.39	NaN	NaN	NaN	-389.75	44.711	302.95	-327.48	43.093	352.38	-84.001	676.04	155.59	27.837	621.45	178.63	-37.718	599.4	174.79	-14.13	696.61	153.27	16.708	511.71	193.65	19.44	513.03	319.15	19.723	322.25	194.92	112.48	262.65	214.61	40.976	252.89	210.46	84.359	332.18	199.85	122.89	97.837	224.13	146.47	114	310	80.401	66.847	277.33	103.72	37.376	309.34	93.838	40.663	246.17	264.26	68.739	208.55	284.08	83.993	319.91	338.25	117.21	269.5	-217.68	1497.2	332.41	-269.38	1214.1	344.58
266	1.1042	-27.721	1198.7	324.81	-132.64	1439.9	501.53	-159.32	1463.7	165.37	-144.55	1754.8	346.53	-58.112	984.89	441.34	-49.947	989.67	208.88	-255.47	1013.5	354.61	-249.46	1016	261.23	-148.36	883.5	505.73	-130.27	881.52	137.6	-153.03	1057.4	480.42	-140.43	1070.9	172.69	-269.86	974.87	307	-220.9	699.2	484.94	-169.09	583.94	454.38	-235.31	610.84	462.94	-146.32	674.43	477.45	-234.52	498.25	443.13	-245.69	508.79	315.56	-383.97	368.56	440.9	-360.86	283.74	419.84	-422.1	302.43	430.25	-321.91	350.37	432.86	-504.44	152.88	386.95	-466.04	156.49	312.39	-564.26	136.85	335.07	-558.8	108.63	307.6	-568.09	110.61	368.72	NaN	NaN	NaN	-389.16	45.005	303.06	-327.25	42.851	352.35	-77.726	676.53	155.55	34.07	621.96	178.78	-31.467	599.9	174.77	-7.857	697.13	153.43	22.8	512.07	193.71	25.187	513.38	319.14	24.206	322.62	194.79	116.26	262.06	214.84	44.698	253.03	210.31	88.912	331.89	200.04	124.45	97.323	224.16	148.24	113.07	310.1	81.5	67.488	277.49	104.18	37.476	309.37	94.328	41.066	246.21	265.29	66.021	208.73	285.31	80.775	320.11	340.16	113.12	269.75	-212.03	1497.2	331.85	-263.38	1213.9	344.22
